<svg viewBox="0 0 20 20" fill="currentColor" xmlns="http://www.w3.org/2000/svg">
<path fill-rule="evenodd" clip-rule="evenodd" d="M7.1644 16C6.55487 16 6.09122 15.4527 6.19143 14.8514L6.5 13H5C4.44772 13 4 12.5523 4 12C4 11.4477 4.44772 11 5 11H6.83333L7.16667 9H5C4.44772 9 4 8.55228 4 8C4 7.44772 4.44772 7 5 7H7.5L7.86263 4.82423C7.9419 4.3486 8.35341 4 8.8356 4C9.44513 4 9.90878 4.54732 9.80857 5.14856L9.5 7H11.5L11.8626 4.82423C11.9419 4.3486 12.3534 4 12.8356 4C13.4451 4 13.9088 4.54732 13.8086 5.14856L13.5 7H15C15.5523 7 16 7.44772 16 8C16 8.55228 15.5523 9 15 9H13.1667L12.8333 11H15C15.5523 11 16 11.4477 16 12C16 12.5523 15.5523 13 15 13H12.5L12.1374 15.1758C12.0581 15.6514 11.6466 16 11.1644 16C10.5549 16 10.0912 15.4527 10.1914 14.8514L10.5 13H8.5L8.13737 15.1758C8.0581 15.6514 7.64659 16 7.1644 16ZM10.8333 11L11.1667 9H9.16667L8.83333 11H10.8333Z" fill="currentColor"/>
</svg>
